<mxfile host="app.diagrams.net" modified="2024-01-02T14:18:58.119Z" agent="Mozilla/5.0 (Windows NT 10.0; Win64; x64) AppleWebKit/537.36 (KHTML, like Gecko) Chrome/120.0.0.0 Safari/537.36" etag="FHjE_KY4siorentbTKLy" version="22.1.16" type="device">
  <diagram name="第 1 页" id="ZJmHlYTxXY7l-xerxR3p">
    <mxGraphModel dx="1334" dy="940" grid="0" gridSize="10" guides="1" tooltips="1" connect="1" arrows="1" fold="1" page="0" pageScale="1" pageWidth="827" pageHeight="1169" math="0" shadow="0">
      <root>
        <mxCell id="0" />
        <mxCell id="1" parent="0" />
        <mxCell id="mW-5mBtP9FpFtfGGS4Oe-3" style="rounded=0;orthogonalLoop=1;jettySize=auto;html=1;exitX=0.5;exitY=0;exitDx=0;exitDy=0;entryX=0;entryY=1;entryDx=0;entryDy=0;endArrow=none;endFill=0;" edge="1" parent="1" source="dplSPCH8QZGUuFaIFNm9-1" target="dplSPCH8QZGUuFaIFNm9-11">
          <mxGeometry relative="1" as="geometry" />
        </mxCell>
        <mxCell id="dplSPCH8QZGUuFaIFNm9-1" value="商家" style="rounded=1;whiteSpace=wrap;html=1;fontSize=16;" parent="1" vertex="1">
          <mxGeometry x="257" y="260" width="105" height="33" as="geometry" />
        </mxCell>
        <mxCell id="dplSPCH8QZGUuFaIFNm9-2" value="商家&lt;br style=&quot;border-color: var(--border-color);&quot;&gt;帳號" style="ellipse;whiteSpace=wrap;html=1;fontSize=16;rotation=0;" parent="1" vertex="1">
          <mxGeometry x="-59" y="94" width="82" height="63" as="geometry" />
        </mxCell>
        <mxCell id="dplSPCH8QZGUuFaIFNm9-3" value="密碼" style="ellipse;whiteSpace=wrap;html=1;fontSize=16;rotation=0;" parent="1" vertex="1">
          <mxGeometry x="5" y="35" width="82" height="63" as="geometry" />
        </mxCell>
        <mxCell id="dplSPCH8QZGUuFaIFNm9-4" value="聯繫&lt;br style=&quot;border-color: var(--border-color);&quot;&gt;方式" style="ellipse;whiteSpace=wrap;html=1;fontSize=16;rotation=0;" parent="1" vertex="1">
          <mxGeometry x="245" y="-60" width="82" height="63" as="geometry" />
        </mxCell>
        <mxCell id="dplSPCH8QZGUuFaIFNm9-5" value="聯繫&lt;br style=&quot;border-color: var(--border-color);&quot;&gt;人" style="ellipse;whiteSpace=wrap;html=1;fontSize=16;rotation=0;" parent="1" vertex="1">
          <mxGeometry x="163" y="-35" width="82" height="63" as="geometry" />
        </mxCell>
        <mxCell id="dplSPCH8QZGUuFaIFNm9-7" value="店鋪&lt;br style=&quot;border-color: var(--border-color);&quot;&gt;名稱" style="ellipse;whiteSpace=wrap;html=1;fontSize=16;rotation=0;" parent="1" vertex="1">
          <mxGeometry x="81" y="-6" width="82" height="63" as="geometry" />
        </mxCell>
        <mxCell id="dplSPCH8QZGUuFaIFNm9-8" value="店鋪&lt;br style=&quot;border-color: var(--border-color);&quot;&gt;地址" style="ellipse;whiteSpace=wrap;html=1;fontSize=16;rotation=15;" parent="1" vertex="1">
          <mxGeometry x="418" y="-6" width="82" height="63" as="geometry" />
        </mxCell>
        <mxCell id="dplSPCH8QZGUuFaIFNm9-9" value="經營&lt;br style=&quot;border-color: var(--border-color);&quot;&gt;範圍" style="ellipse;whiteSpace=wrap;html=1;fontSize=16;rotation=5;" parent="1" vertex="1">
          <mxGeometry x="336" y="-35" width="82" height="63" as="geometry" />
        </mxCell>
        <mxCell id="dplSPCH8QZGUuFaIFNm9-10" value="是否&lt;br style=&quot;border-color: var(--border-color);&quot;&gt;審核" style="ellipse;whiteSpace=wrap;html=1;fontSize=16;rotation=0;" parent="1" vertex="1">
          <mxGeometry x="500" y="35" width="82" height="63" as="geometry" />
        </mxCell>
        <mxCell id="dplSPCH8QZGUuFaIFNm9-11" value="審核&lt;br style=&quot;border-color: var(--border-color);&quot;&gt;回復" style="ellipse;whiteSpace=wrap;html=1;fontSize=16;rotation=0;" parent="1" vertex="1">
          <mxGeometry x="579" y="73" width="82" height="63" as="geometry" />
        </mxCell>
        <mxCell id="dplSPCH8QZGUuFaIFNm9-21" value="餘額" style="ellipse;whiteSpace=wrap;html=1;fontSize=16;rotation=-1;" parent="1" vertex="1">
          <mxGeometry x="618" y="148" width="82" height="63" as="geometry" />
        </mxCell>
        <mxCell id="dplSPCH8QZGUuFaIFNm9-23" value="" style="endArrow=none;html=1;rounded=0;fontSize=12;startSize=8;endSize=8;curved=1;entryX=1;entryY=1;entryDx=0;entryDy=0;exitX=0.5;exitY=0;exitDx=0;exitDy=0;" parent="1" source="dplSPCH8QZGUuFaIFNm9-1" target="dplSPCH8QZGUuFaIFNm9-2" edge="1">
          <mxGeometry width="50" height="50" relative="1" as="geometry">
            <mxPoint x="261" y="137" as="sourcePoint" />
            <mxPoint x="311" y="87" as="targetPoint" />
          </mxGeometry>
        </mxCell>
        <mxCell id="dplSPCH8QZGUuFaIFNm9-24" value="" style="endArrow=none;html=1;rounded=0;fontSize=12;startSize=8;endSize=8;curved=1;exitX=1;exitY=1;exitDx=0;exitDy=0;entryX=0.5;entryY=0;entryDx=0;entryDy=0;" parent="1" source="dplSPCH8QZGUuFaIFNm9-3" target="dplSPCH8QZGUuFaIFNm9-1" edge="1">
          <mxGeometry width="50" height="50" relative="1" as="geometry">
            <mxPoint x="261" y="137" as="sourcePoint" />
            <mxPoint x="311" y="87" as="targetPoint" />
          </mxGeometry>
        </mxCell>
        <mxCell id="dplSPCH8QZGUuFaIFNm9-25" value="" style="endArrow=none;html=1;rounded=0;fontSize=12;startSize=8;endSize=8;curved=1;exitX=0.5;exitY=1;exitDx=0;exitDy=0;entryX=0.5;entryY=0;entryDx=0;entryDy=0;" parent="1" source="dplSPCH8QZGUuFaIFNm9-7" target="dplSPCH8QZGUuFaIFNm9-1" edge="1">
          <mxGeometry width="50" height="50" relative="1" as="geometry">
            <mxPoint x="261" y="137" as="sourcePoint" />
            <mxPoint x="307" y="87" as="targetPoint" />
          </mxGeometry>
        </mxCell>
        <mxCell id="dplSPCH8QZGUuFaIFNm9-26" value="" style="endArrow=none;html=1;rounded=0;fontSize=12;startSize=8;endSize=8;curved=1;exitX=0.5;exitY=1;exitDx=0;exitDy=0;entryX=0.5;entryY=0;entryDx=0;entryDy=0;" parent="1" source="dplSPCH8QZGUuFaIFNm9-5" target="dplSPCH8QZGUuFaIFNm9-1" edge="1">
          <mxGeometry width="50" height="50" relative="1" as="geometry">
            <mxPoint x="261" y="137" as="sourcePoint" />
            <mxPoint x="311" y="87" as="targetPoint" />
          </mxGeometry>
        </mxCell>
        <mxCell id="dplSPCH8QZGUuFaIFNm9-27" value="" style="endArrow=none;html=1;rounded=0;fontSize=12;startSize=8;endSize=8;curved=1;entryX=0.5;entryY=1;entryDx=0;entryDy=0;exitX=0.5;exitY=0;exitDx=0;exitDy=0;" parent="1" source="dplSPCH8QZGUuFaIFNm9-1" target="dplSPCH8QZGUuFaIFNm9-4" edge="1">
          <mxGeometry width="50" height="50" relative="1" as="geometry">
            <mxPoint x="261" y="137" as="sourcePoint" />
            <mxPoint x="311" y="87" as="targetPoint" />
          </mxGeometry>
        </mxCell>
        <mxCell id="dplSPCH8QZGUuFaIFNm9-28" value="" style="endArrow=none;html=1;rounded=0;fontSize=12;startSize=8;endSize=8;curved=1;entryX=0.5;entryY=1;entryDx=0;entryDy=0;exitX=0.5;exitY=0;exitDx=0;exitDy=0;" parent="1" source="dplSPCH8QZGUuFaIFNm9-1" target="dplSPCH8QZGUuFaIFNm9-9" edge="1">
          <mxGeometry width="50" height="50" relative="1" as="geometry">
            <mxPoint x="261" y="137" as="sourcePoint" />
            <mxPoint x="311" y="87" as="targetPoint" />
          </mxGeometry>
        </mxCell>
        <mxCell id="dplSPCH8QZGUuFaIFNm9-29" value="" style="endArrow=none;html=1;rounded=0;fontSize=12;startSize=8;endSize=8;curved=1;entryX=0.5;entryY=1;entryDx=0;entryDy=0;exitX=0.5;exitY=0;exitDx=0;exitDy=0;" parent="1" source="dplSPCH8QZGUuFaIFNm9-1" target="dplSPCH8QZGUuFaIFNm9-8" edge="1">
          <mxGeometry width="50" height="50" relative="1" as="geometry">
            <mxPoint x="261" y="137" as="sourcePoint" />
            <mxPoint x="311" y="87" as="targetPoint" />
          </mxGeometry>
        </mxCell>
        <mxCell id="dplSPCH8QZGUuFaIFNm9-30" value="" style="endArrow=none;html=1;rounded=0;fontSize=12;startSize=8;endSize=8;curved=1;entryX=0;entryY=1;entryDx=0;entryDy=0;exitX=0.5;exitY=0;exitDx=0;exitDy=0;" parent="1" source="dplSPCH8QZGUuFaIFNm9-1" target="dplSPCH8QZGUuFaIFNm9-10" edge="1">
          <mxGeometry width="50" height="50" relative="1" as="geometry">
            <mxPoint x="261" y="137" as="sourcePoint" />
            <mxPoint x="311" y="87" as="targetPoint" />
          </mxGeometry>
        </mxCell>
        <mxCell id="dplSPCH8QZGUuFaIFNm9-32" value="" style="endArrow=none;html=1;rounded=0;fontSize=12;startSize=8;endSize=8;curved=1;exitX=0.5;exitY=0;exitDx=0;exitDy=0;" parent="1" source="dplSPCH8QZGUuFaIFNm9-1" target="dplSPCH8QZGUuFaIFNm9-21" edge="1">
          <mxGeometry width="50" height="50" relative="1" as="geometry">
            <mxPoint x="261" y="137" as="sourcePoint" />
            <mxPoint x="311" y="87" as="targetPoint" />
          </mxGeometry>
        </mxCell>
      </root>
    </mxGraphModel>
  </diagram>
</mxfile>
